{
  "accessors": [
    {
      "bufferView": 2,
      "componentType": 5126,
      "count": 2312,
      "max": [
        23.774503707885742,
        23.774486541748047,
        -2.1241309642791748
      ],
      "min": [
        -23.774452209472656,
        -23.774469375610352,
        -6.2253999710083008
      ],
      "type": "VEC3"
    },
    {
      "bufferView": 2,
      "byteOffset": 27744,
      "componentType": 5126,
      "count": 2312,
      "max": [
        0.9981684684753418,
        0.99816888570785522,
        1
      ],
      "min": [
        -0.99816900491714478,
        -0.9981689453125,
        -1
      ],
      "type": "VEC3"
    },
    {
      "bufferView": 3,
      "componentType": 5126,
      "count": 2312,
      "max": [
        1,
        0.49992460012435913,
        0.99816864728927612,
        1
      ],
      "min": [
        -0.060490407049655914,
        -0.53014791011810303,
        -0.9981691837310791,
        -1
      ],
      "type": "VEC4"
    },
    {
      "bufferView": 1,
      "componentType": 5126,
      "count": 2312,
      "max": [
        1.0009729862213135,
        1.0009729862213135
      ],
      "min": [
        -0.00097300001652911305,
        -0.00097300001652911305
      ],
      "type": "VEC2"
    },
    {
      "bufferView": 0,
      "componentType": 5125,
      "count": 13830,
      "max": [
        2311
      ],
      "min": [
        0
      ],
      "type": "SCALAR"
    },
    {
      "bufferView": 2,
      "byteOffset": 55488,
      "componentType": 5126,
      "count": 25322,
      "max": [
        16.548391342163086,
        16.912881851196289,
        4.8871321678161621
      ],
      "min": [
        -16.544683456420898,
        -16.944259643554688,
        -4.967566967010498
      ],
      "type": "VEC3"
    },
    {
      "bufferView": 2,
      "byteOffset": 359352,
      "componentType": 5126,
      "count": 25322,
      "max": [
        0.99998182058334351,
        0.99990326166152954,
        0.99999946355819702
      ],
      "min": [
        -0.99992865324020386,
        -0.99998635053634644,
        -1
      ],
      "type": "VEC3"
    },
    {
      "bufferView": 3,
      "byteOffset": 36992,
      "componentType": 5126,
      "count": 25322,
      "max": [
        0.99997556209564209,
        0.99998652935028076,
        0.99977028369903564,
        -1
      ],
      "min": [
        -0.99993801116943359,
        -0.99999755620956421,
        -0.99805772304534912,
        -1
      ],
      "type": "VEC4"
    },
    {
      "bufferView": 1,
      "byteOffset": 18496,
      "componentType": 5126,
      "count": 25322,
      "max": [
        0.99112099409103394,
        0.99108600616455078
      ],
      "min": [
        0.0036800000816583633,
        0.0052709998562932014
      ],
      "type": "VEC2"
    },
    {
      "bufferView": 0,
      "byteOffset": 55320,
      "componentType": 5125,
      "count": 138552,
      "max": [
        25321
      ],
      "min": [
        0
      ],
      "type": "SCALAR"
    }
  ],
  "asset": {
    "extras": {
      "author": "Francesco Coldesina (https://sketchfab.com/topfrank2013)",
      "license": "CC-BY-4.0 (http://creativecommons.org/licenses/by/4.0/)",
      "source": "https://sketchfab.com/models/d1b442b228e6422f8877bab8f8a6bfec",
      "title": "Fruit Cream Cake"
    },
    "generator": "Sketchfab-3.20.7",
    "version": "2.0"
  },
  "bufferViews": [
    {
      "buffer": 0,
      "byteLength": 609528,
      "byteOffset": 0,
      "name": "floatBufferViews",
      "target": 34963
    },
    {
      "buffer": 0,
      "byteLength": 221072,
      "byteOffset": 609528,
      "byteStride": 8,
      "name": "floatBufferViews",
      "target": 34962
    },
    {
      "buffer": 0,
      "byteLength": 663216,
      "byteOffset": 830600,
      "byteStride": 12,
      "name": "floatBufferViews",
      "target": 34962
    },
    {
      "buffer": 0,
      "byteLength": 442144,
      "byteOffset": 1493816,
      "byteStride": 16,
      "name": "floatBufferViews",
      "target": 34962
    }
  ],
  "buffers": [
    {
      "byteLength": 1935960,
      "uri": "scene.bin"
    }
  ],
  "extensionsRequired": [
    "KHR_materials_pbrSpecularGlossiness"
  ],
  "extensionsUsed": [
    "KHR_materials_pbrSpecularGlossiness"
  ],
  "images": [
    {
      "uri": "textures/CL_LR_Baked1_emissive.jpeg"
    },
    {
      "uri": "textures/CL_LR_Baked1_occlusion.png"
    },
    {
      "uri": "textures/CL_LR_Baked1_diffuse.jpeg"
    },
    {
      "uri": "textures/CL_LR_Baked1_specularGlossiness.png"
    },
    {
      "uri": "textures/CL_LR_Baked1_normal.png"
    },
    {
      "uri": "textures/03___Default_diffuse.jpeg"
    },
    {
      "uri": "textures/03___Default_emissive.jpeg"
    }
  ],
  "materials": [
    {
      "doubleSided": true,
      "emissiveFactor": [
        0,
        0,
        0
      ],
      "emissiveTexture": {
        "index": 6,
        "texCoord": 0
      },
      "extensions": {
        "KHR_materials_pbrSpecularGlossiness": {
          "diffuseFactor": [
            1,
            1,
            1,
            1
          ],
          "diffuseTexture": {
            "index": 5,
            "texCoord": 0
          },
          "glossinessFactor": 0,
          "specularFactor": [
            0,
            0,
            0
          ]
        }
      },
      "name": "03___Default"
    },
    {
      "doubleSided": true,
      "emissiveFactor": [
        0,
        0,
        0
      ],
      "emissiveTexture": {
        "index": 0,
        "texCoord": 0
      },
      "extensions": {
        "KHR_materials_pbrSpecularGlossiness": {
          "diffuseFactor": [
            1,
            1,
            1,
            1
          ],
          "diffuseTexture": {
            "index": 2,
            "texCoord": 0
          },
          "glossinessFactor": 0.72122713409999994,
          "specularFactor": [
            1,
            1,
            1
          ],
          "specularGlossinessTexture": {
            "index": 3,
            "texCoord": 0
          }
        }
      },
      "name": "CL_LR_Baked1",
      "normalTexture": {
        "index": 4,
        "scale": 1,
        "texCoord": 0
      },
      "occlusionTexture": {
        "index": 1,
        "strength": 1,
        "texCoord": 0
      }
    }
  ],
  "meshes": [
    {
      "primitives": [
        {
          "attributes": {
            "NORMAL": 1,
            "POSITION": 0,
            "TANGENT": 2,
            "TEXCOORD_0": 3
          },
          "indices": 4,
          "material": 0,
          "mode": 4
        }
      ]
    },
    {
      "primitives": [
        {
          "attributes": {
            "NORMAL": 6,
            "POSITION": 5,
            "TANGENT": 7,
            "TEXCOORD_0": 8
          },
          "indices": 9,
          "material": 1,
          "mode": 4
        }
      ]
    }
  ],
  "nodes": [
    {
      "children": [
        1
      ],
      "name": "RootNode (gltf orientation matrix)",
      "rotation": [
        -0.70710678118654746,
        -0,
        -0,
        0.70710678118654757
      ]
    },
    {
      "children": [
        2
      ],
      "name": "RootNode (model correction matrix)"
    },
    {
      "children": [
        3,
        4
      ],
      "name": "Kake.obj.cleaner.materialmerger.gles"
    },
    {
      "mesh": 0,
      "name": ""
    },
    {
      "mesh": 1,
      "name": ""
    }
  ],
  "samplers": [
    {
      "magFilter": 9729,
      "minFilter": 9987,
      "wrapS": 10497,
      "wrapT": 10497
    }
  ],
  "scene": 0,
  "scenes": [
    {
      "name": "OSG_Scene",
      "nodes": [
        0
      ]
    }
  ],
  "textures": [
    {
      "sampler": 0,
      "source": 0
    },
    {
      "sampler": 0,
      "source": 1
    },
    {
      "sampler": 0,
      "source": 2
    },
    {
      "sampler": 0,
      "source": 3
    },
    {
      "sampler": 0,
      "source": 4
    },
    {
      "sampler": 0,
      "source": 5
    },
    {
      "sampler": 0,
      "source": 6
    }
  ]
}

